<svg xmlns="http://www.w3.org/2000/svg" data-name="Layer 1" viewBox="0 0 7.95 7.39">
    <path fill="currentColor" fill-rule="evenodd" d="M7.72.83a.767.767 0 0 0-.58-.26h-.89V.29c0-.16-.13-.28-.28-.28s-.28.13-.28.28v.28H4.27V.29c0-.16-.13-.28-.28-.28s-.28.13-.28.28v.28H2.29V.29c0-.16-.13-.28-.28-.28s-.28.13-.28.28v.28H.84C.62.57.41.66.26.83c-.15.16-.23.37-.23.6v5.11c0 .22.08.44.23.6.15.17.36.26.58.26h6.33c.22 0 .43-.09.58-.26.15-.16.23-.37.23-.6V1.42c0-.22-.08-.44-.23-.6ZM2.66 6.02c0 .1-.08.18-.18.18H1.47a.18.18 0 0 1-.18-.18v-.59c0-.1.08-.18.18-.18h1.01c.1 0 .18.08.18.18v.59Zm0-1.59c0 .1-.08.18-.18.18H1.47a.18.18 0 0 1-.18-.18v-.59c0-.1.08-.18.18-.18h1.01c.1 0 .18.08.18.18v.59Zm1.99 1.59c0 .1-.08.18-.18.18H3.46a.18.18 0 0 1-.18-.18v-.59c0-.1.08-.18.18-.18h1.01c.1 0 .18.08.18.18v.59Zm0-1.59c0 .1-.08.18-.18.18H3.46a.18.18 0 0 1-.18-.18v-.59c0-.1.08-.18.18-.18h1.01c.1 0 .18.08.18.18v.59Zm1.98 1.59c0 .1-.08.18-.18.18H5.44a.18.18 0 0 1-.18-.18v-.59c0-.1.08-.18.18-.18h1.01c.1 0 .18.08.18.18v.59Zm0-1.59c0 .1-.08.18-.18.18H5.44a.18.18 0 0 1-.18-.18v-.59c0-.1.08-.18.18-.18h1.01c.1 0 .18.08.18.18v.59Zm.76-2.16H.57v-.85c0-.08.03-.15.08-.21.04-.05.1-.08.16-.08h.89v.28c0 .16.13.28.28.28s.28-.13.28-.28v-.28h1.42v.28c0 .16.13.28.28.28s.28-.13.28-.28v-.28h1.42v.28c0 .16.13.28.28.28s.28-.13.28-.28v-.28h.89c.06 0 .12.03.16.08.05.06.08.13.08.21v.85Z"/>
</svg>
